CalSansText-SemiBold.ufo
<glyph name="ampersand" format="2">
  <advance width="687.6500000000001"/>
  <unicode hex="0026"/>
  <outline>
    <contour>
      <point x="280.125" y="-13.0" type="curve" smooth="yes"/>
      <point x="350.125" y="-13.0"/>
      <point x="417.45000000000005" y="18.7"/>
      <point x="450.97499999999997" y="54.2" type="curve" smooth="yes"/>
      <point x="523.7" y="126.55" type="line"/>
      <point x="636.25" y="235.52499999999998" type="line"/>
      <point x="561.7" y="306.5" type="line"/>
      <point x="455.625" y="202.0" type="line"/>
      <point x="386.125" y="140.925" type="line" smooth="yes"/>
      <point x="350.15" y="108.325"/>
      <point x="321.05" y="94.4"/>
      <point x="279.1" y="94.4" type="curve" smooth="yes"/>
      <point x="216.97500000000002" y="94.4"/>
      <point x="180.10000000000002" y="141.675"/>
      <point x="180.10000000000002" y="193.85" type="curve" smooth="yes"/>
      <point x="180.10000000000002" y="234.4"/>
      <point x="199.425" y="263.325"/>
      <point x="236.25" y="287.55" type="curve" smooth="yes"/>
      <point x="394.225" y="391.09999999999997" type="line" smooth="yes"/>
      <point x="470.5" y="441.07500000000005"/>
      <point x="492.275" y="499.9"/>
      <point x="491.95000000000005" y="550.175" type="curve" smooth="yes"/>
      <point x="491.625" y="652.325"/>
      <point x="409.07500000000005" y="713.0"/>
      <point x="309.45" y="713.0" type="curve" smooth="yes"/>
      <point x="204.45000000000002" y="713.0"/>
      <point x="123.975" y="642.575"/>
      <point x="123.975" y="545.625" type="curve" smooth="yes"/>
      <point x="123.975" y="492.425"/>
      <point x="142.625" y="455.95000000000005"/>
      <point x="181.55" y="409.375" type="curve" smooth="yes"/>
      <point x="433.7" y="107.17500000000001" type="line"/>
      <point x="453.975" y="95.6" type="line"/>
      <point x="522.95" y="0.0" type="line"/>
      <point x="662.6500000000001" y="0.0" type="line"/>
      <point x="274.175" y="475.25" type="line" smooth="yes"/>
      <point x="249.9" y="504.85"/>
      <point x="240.375" y="523.05"/>
      <point x="240.375" y="548.9" type="curve" smooth="yes"/>
      <point x="240.375" y="587.425"/>
      <point x="270.3" y="614.375"/>
      <point x="312.15" y="614.375" type="curve" smooth="yes"/>
      <point x="350.65" y="614.375"/>
      <point x="378.925" y="589.15"/>
      <point x="379.25" y="548.9" type="curve" smooth="yes"/>
      <point x="379.575" y="516.025"/>
      <point x="359.75" y="485.85"/>
      <point x="304.575" y="453.95" type="curve" smooth="yes"/>
      <point x="176.975" y="379.79999999999995" type="line" smooth="yes"/>
      <point x="110.075" y="340.525"/>
      <point x="60.0" y="274.25"/>
      <point x="60.0" y="190.425" type="curve" smooth="yes"/>
      <point x="60.0" y="78.775"/>
      <point x="139.05" y="-13.0"/>
    </contour>
  </outline>
</glyph>
<glyph name="two" format="2">
  <advance width="600.65"/>
  <unicode hex="0032"/>
  <outline>
    <contour>
      <point x="41.575" y="0.0" type="line"/>
      <point x="527.575" y="0.0" type="line"/>
      <point x="527.575" y="107.075" type="line"/>
      <point x="264.75" y="105.07500000000002" type="line"/>
      <point x="264.75" y="108.075" type="line"/>
      <point x="284.75" y="119.07499999999999"/>
      <point x="321.75" y="155.72500000000002"/>
      <point x="351.4" y="193.4" type="curve" smooth="yes"/>
      <point x="451.85" y="320.225" type="line" smooth="yes"/>
      <point x="503.70000000000005" y="384.425"/>
      <point x="522.6" y="434.975"/>
      <point x="522.6" y="494.54999999999995" type="curve" smooth="yes"/>
      <point x="522.6" y="611.725"/>
      <point x="427.45000000000005" y="713.0"/>
      <point x="284.07500000000005" y="713.0" type="curve" smooth="yes"/>
      <point x="142.675" y="713.0"/>
      <point x="41.575" y="614.0"/>
      <point x="41.575" y="470.0" type="curve"/>
      <point x="167.4" y="470.0" type="line"/>
      <point x="167.4" y="554.35"/>
      <point x="213.175" y="600.225"/>
      <point x="282.075" y="600.225" type="curve" smooth="yes"/>
      <point x="351.3" y="600.225"/>
      <point x="395.8" y="554.35"/>
      <point x="395.8" y="486.875" type="curve" smooth="yes"/>
      <point x="395.8" y="440.625"/>
      <point x="367.15" y="392.075"/>
      <point x="321.25" y="339.825" type="curve" smooth="yes"/>
      <point x="41.575" y="16.0" type="line"/>
    </contour>
  </outline>
</glyph>
<glyph name="E" format="2">
  <advance width="557.425"/>
  <unicode hex="0045"/>
  <anchor x="306.75" y="0.0" name="bottom"/>
  <anchor x="395.75" y="0.0" name="ogonek"/>
  <anchor x="296.75" y="700.0" name="top"/>
  <outline>
    <contour>
      <point x="80.64999999999999" y="0.0" type="line"/>
      <point x="487.775" y="0.0" type="line"/>
      <point x="487.775" y="115.82499999999999" type="line"/>
      <point x="201.79999999999998" y="115.82499999999999" type="line"/>
      <point x="201.79999999999998" y="297.075" type="line"/>
      <point x="480.775" y="297.075" type="line"/>
      <point x="480.775" y="412.9" type="line"/>
      <point x="201.79999999999998" y="412.9" type="line"/>
      <point x="201.79999999999998" y="584.175" type="line"/>
      <point x="485.775" y="584.175" type="line"/>
      <point x="485.775" y="700.0" type="line"/>
      <point x="80.64999999999999" y="700.0" type="line"/>
    </contour>
  </outline>
</glyph>
<glyph name="J" format="2">
  <advance width="467.42500000000007"/>
  <unicode hex="004A"/>
  <anchor x="187.8" y="0.0" name="bottom"/>
  <anchor x="250.8" y="0.0" name="ogonek"/>
  <anchor x="330.875" y="700.0" name="top"/>
  <outline>
    <contour>
      <point x="187.8" y="-12.675" type="curve" smooth="yes"/>
      <point x="319.025" y="-11.7"/>
      <point x="391.77500000000003" y="57.3"/>
      <point x="391.77500000000003" y="195.45" type="curve" smooth="yes"/>
      <point x="391.77500000000003" y="700.0" type="line"/>
      <point x="269.975" y="700.0" type="line"/>
      <point x="269.975" y="189.375" type="line" smooth="yes"/>
      <point x="269.975" y="133.3"/>
      <point x="235.375" y="100.42500000000001"/>
      <point x="188.55" y="100.42500000000001" type="curve" smooth="yes"/>
      <point x="154.2" y="100.42500000000001"/>
      <point x="127.55000000000001" y="115.85000000000001"/>
      <point x="109.6" y="138.475" type="curve"/>
      <point x="32.65" y="43.775000000000006" type="line"/>
      <point x="77.07499999999999" y="4.75"/>
      <point x="128.775" y="-13.0"/>
    </contour>
  </outline>
</glyph>
<glyph name="L" format="2">
  <advance width="530.475"/>
  <unicode hex="004C"/>
  <anchor x="286.5" y="0.0" name="bottom"/>
  <anchor x="311.5" y="370.0" name="center"/>
  <anchor x="474.5" y="0.0" name="ogonek"/>
  <anchor x="138.2" y="700.0" name="top"/>
  <anchor x="301.5" y="700.0" name="topright"/>
  <outline>
    <contour>
      <point x="80.64999999999999" y="0.0" type="line"/>
      <point x="474.825" y="0.0" type="line"/>
      <point x="474.825" y="115.82499999999999" type="line"/>
      <point x="201.79999999999998" y="115.82499999999999" type="line"/>
      <point x="201.79999999999998" y="700.0" type="line"/>
      <point x="80.64999999999999" y="700.0" type="line"/>
    </contour>
  </outline>
</glyph>
<glyph name="P" format="2">
  <advance width="605.0250000000001"/>
  <unicode hex="0050"/>
  <anchor x="141.225" y="0.0" name="bottom"/>
  <anchor x="201.79999999999998" y="0.0" name="ogonek"/>
  <anchor x="305.25" y="700.0" name="top"/>
  <outline>
    <contour>
      <point x="80.64999999999999" y="0.0" type="line"/>
      <point x="201.79999999999998" y="0.0" type="line"/>
      <point x="201.79999999999998" y="261.225" type="line"/>
      <point x="319.5" y="261.225" type="line" smooth="yes"/>
      <point x="466.75" y="261.225"/>
      <point x="564.375" y="336.0"/>
      <point x="564.375" y="480.42499999999995" type="curve" smooth="yes"/>
      <point x="564.375" y="623.85"/>
      <point x="466.425" y="700.0"/>
      <point x="319.5" y="700.0" type="curve" smooth="yes"/>
      <point x="80.64999999999999" y="700.0" type="line"/>
    </contour>
    <contour>
      <point x="201.79999999999998" y="377.05" type="line"/>
      <point x="201.79999999999998" y="584.175" type="line"/>
      <point x="311.5" y="584.175" type="line" smooth="yes"/>
      <point x="392.05" y="584.175"/>
      <point x="440.9" y="554.2"/>
      <point x="440.9" y="479.75" type="curve" smooth="yes"/>
      <point x="440.9" y="403.975"/>
      <point x="392.05" y="377.05"/>
      <point x="311.5" y="377.05" type="curve" smooth="yes"/>
    </contour>
  </outline>
</glyph>
<glyph name="U" format="2">
  <advance width="703.075"/>
  <unicode hex="0055"/>
  <anchor x="351.375" y="0.0" name="bottom"/>
  <anchor x="355.9" y="0.0" name="ogonek"/>
  <anchor x="351.375" y="684.0" name="top"/>
  <anchor x="351.375" y="647.0" name="top_ring"/>
  <anchor x="642.375" y="700.0" name="topright"/>
  <outline>
    <contour>
      <point x="351.375" y="-13.0" type="curve" smooth="yes"/>
      <point x="522.375" y="-13.0"/>
      <point x="632.425" y="99.32499999999999"/>
      <point x="632.425" y="261.275" type="curve" smooth="yes"/>
      <point x="632.425" y="700.0" type="line"/>
      <point x="510.625" y="700.0" type="line"/>
      <point x="510.625" y="270.75" type="line" smooth="yes"/>
      <point x="510.625" y="162.32500000000002"/>
      <point x="456.15000000000003" y="99.775"/>
      <point x="351.375" y="99.775" type="curve" smooth="yes"/>
      <point x="246.925" y="99.775"/>
      <point x="192.45" y="162.97500000000002"/>
      <point x="192.45" y="273.025" type="curve" smooth="yes"/>
      <point x="192.45" y="700.0" type="line"/>
      <point x="70.65" y="700.0" type="line"/>
      <point x="70.65" y="259.0" type="line" smooth="yes"/>
      <point x="70.65" y="99.32499999999999"/>
      <point x="180.375" y="-13.0"/>
    </contour>
  </outline>
</glyph>
<glyph name="n" format="2">
  <advance width="590.05"/>
  <unicode hex="006E"/>
  <anchor x="298.125" y="0.0" name="bottom"/>
  <anchor x="407.275" y="0.0" name="ogonek"/>
  <anchor x="316.55" y="500.125" name="top"/>
  <outline>
    <contour>
      <point x="70.65" y="0.0" type="line"/>
      <point x="187.77499999999998" y="0.0" type="line"/>
      <point x="187.77499999999998" y="291.95" type="line" smooth="yes"/>
      <point x="187.77499999999998" y="363.825"/>
      <point x="231.3" y="408.75"/>
      <point x="300.075" y="408.75" type="curve" smooth="yes"/>
      <point x="366.0" y="408.75"/>
      <point x="407.275" y="363.825"/>
      <point x="407.275" y="291.95" type="curve" smooth="yes"/>
      <point x="407.275" y="0.0" type="line"/>
      <point x="524.4" y="0.0" type="line"/>
      <point x="524.4" y="320.075" type="line" smooth="yes"/>
      <point x="524.4" y="433.02500000000003"/>
      <point x="441.65000000000003" y="512.45"/>
      <point x="340.425" y="512.45" type="curve" smooth="yes"/>
      <point x="262.8" y="512.45"/>
      <point x="214.075" y="472.45"/>
      <point x="189.775" y="432.2" type="curve"/>
      <point x="183.775" y="432.2" type="line"/>
      <point x="183.775" y="500.125" type="line"/>
      <point x="70.65" y="500.125" type="line"/>
    </contour>
  </outline>
</glyph>
<glyph name="q" format="2">
  <advance width="632.95"/>
  <unicode hex="0071"/>
  <anchor x="361.65" y="-71.49999999999999" name="bottom"/>
  <anchor x="358.1" y="0.0" name="ogonek"/>
  <anchor x="291.45" y="500.125" name="top"/>
  <outline>
    <contour>
      <point x="287.075" y="-13.0" type="curve" smooth="yes"/>
      <point x="359.95" y="-13.0"/>
      <point x="424.0" y="25.225"/>
      <point x="445.925" y="80.5" type="curve"/>
      <point x="451.925" y="80.5" type="line"/>
      <point x="451.925" y="-220.0" type="line"/>
      <point x="569.05" y="-220.0" type="line"/>
      <point x="569.05" y="500.125" type="line"/>
      <point x="456.6" y="500.125" type="line"/>
      <point x="456.6" y="419.25" type="line"/>
      <point x="450.6" y="419.25" type="line"/>
      <point x="428.67500000000007" y="475.225"/>
      <point x="363.975" y="513.125"/>
      <point x="287.075" y="513.125" type="curve" smooth="yes"/>
      <point x="141.0" y="513.125"/>
      <point x="38.7" y="393.975"/>
      <point x="38.7" y="249.4" type="curve" smooth="yes"/>
      <point x="38.7" y="105.5"/>
      <point x="141.0" y="-13.0"/>
    </contour>
    <contour>
      <point x="304.525" y="94.07499999999999" type="curve" smooth="yes"/>
      <point x="216.425" y="94.07499999999999"/>
      <point x="155.82500000000002" y="160.925"/>
      <point x="155.82500000000002" y="250.39999999999998" type="curve" smooth="yes"/>
      <point x="155.82500000000002" y="339.85"/>
      <point x="216.425" y="406.04999999999995"/>
      <point x="304.525" y="406.04999999999995" type="curve" smooth="yes"/>
      <point x="391.65" y="406.04999999999995"/>
      <point x="452.25" y="339.2"/>
      <point x="452.25" y="249.4" type="curve" smooth="yes"/>
      <point x="452.25" y="161.575"/>
      <point x="391.65" y="94.07499999999999"/>
    </contour>
  </outline>
</glyph>
<glyph name="multiply" format="2">
  <advance width="596.0"/>
  <unicode hex="00D7"/>
  <outline>
    <contour>
      <point x="427.825" y="78.225" type="line"/>
      <point x="495.07500000000005" y="144.45" type="line"/>
      <point x="158.075" y="481.775" type="line"/>
      <point x="90.82499999999999" y="414.875" type="line"/>
    </contour>
    <contour>
      <point x="157.39999999999998" y="76.875" type="line"/>
      <point x="493.725" y="414.875" type="line"/>
      <point x="427.825" y="482.45" type="line"/>
      <point x="91.5" y="144.45" type="line"/>
    </contour>
  </outline>
</glyph>
<glyph name="florin" format="2">
  <advance width="618.05"/>
  <unicode hex="0192"/>
  <outline>
    <contour>
      <point x="47.025000000000006" y="1.0" type="line"/>
      <point x="76.025" y="-3.0"/>
      <point x="106.025" y="-7.0"/>
      <point x="135.025" y="-7.0" type="curve" smooth="yes"/>
      <point x="229.02499999999998" y="-7.0"/>
      <point x="300.875" y="33.0"/>
      <point x="331.875" y="172.0" type="curve" smooth="yes"/>
      <point x="404.875" y="504.0" type="line" smooth="yes"/>
      <point x="422.45000000000005" y="583.575"/>
      <point x="456.025" y="602.675"/>
      <point x="510.025" y="602.675" type="curve" smooth="yes"/>
      <point x="530.375" y="602.675"/>
      <point x="551.025" y="599.0"/>
      <point x="572.025" y="595.675" type="curve"/>
      <point x="572.025" y="700.0" type="line"/>
      <point x="550.3" y="703.975"/>
      <point x="526.6" y="707.0"/>
      <point x="502.275" y="707.0" type="curve" smooth="yes"/>
      <point x="401.27500000000003" y="707.0"/>
      <point x="326.17499999999995" y="661.0"/>
      <point x="295.175" y="521.0" type="curve" smooth="yes"/>
      <point x="222.175" y="189.0" type="line" smooth="yes"/>
      <point x="204.925" y="111.05000000000001"/>
      <point x="170.025" y="96.325"/>
      <point x="124.02499999999999" y="96.325" type="curve" smooth="yes"/>
      <point x="98.025" y="96.325"/>
      <point x="73.025" y="99.325"/>
      <point x="47.025000000000006" y="103.325" type="curve"/>
    </contour>
    <contour>
      <point x="77.025" y="322.85" type="line"/>
      <point x="542.025" y="322.85" type="line"/>
      <point x="542.025" y="418.475" type="line"/>
      <point x="77.025" y="418.475" type="line"/>
    </contour>
  </outline>
</glyph>
<glyph name="hryvnia" format="2">
  <advance width="584.55"/>
  <unicode hex="20B4"/>
  <outline>
    <contour>
      <point x="310.275" y="27.0" type="curve" smooth="yes"/>
      <point x="419.32500000000005" y="27.0"/>
      <point x="505.65" y="59.575"/>
      <point x="567.75" y="157.39999999999998" type="curve"/>
      <point x="463.97499999999997" y="229.05" type="line"/>
      <point x="427.75" y="167.175"/>
      <point x="370.45" y="142.15"/>
      <point x="306.29999999999995" y="142.15" type="curve" smooth="yes"/>
      <point x="246.8" y="142.15"/>
      <point x="198.7" y="171.7"/>
      <point x="198.7" y="223.45" type="curve" smooth="yes"/>
      <point x="198.7" y="256.85"/>
      <point x="225.575" y="274.825"/>
      <point x="261.55" y="293.875" type="curve"/>
      <point x="88.275" y="305.35" type="line"/>
      <point x="76.2" y="284.3"/>
      <point x="69.15" y="258.55"/>
      <point x="69.15" y="226.425" type="curve" smooth="yes"/>
      <point x="69.15" y="97.6"/>
      <point x="167.125" y="27.0"/>
    </contour>
    <contour>
      <point x="12.225" y="255.70000000000002" type="line"/>
      <point x="573.35" y="255.70000000000002" type="line"/>
      <point x="573.35" y="336.475" type="line"/>
      <point x="12.225" y="336.475" type="line"/>
    </contour>
    <contour>
      <point x="12.225" y="377.025" type="line"/>
      <point x="573.35" y="377.025" type="line"/>
      <point x="573.35" y="457.8" type="line"/>
      <point x="12.225" y="457.8" type="line"/>
    </contour>
    <contour>
      <point x="325.67499999999995" y="416.975" type="curve"/>
      <point x="510.4" y="416.975" type="line"/>
      <point x="518.0250000000001" y="434.275"/>
      <point x="522.325" y="455.225"/>
      <point x="522.325" y="480.15" type="curve" smooth="yes"/>
      <point x="522.325" y="597.9"/>
      <point x="427.825" y="672.325"/>
      <point x="289.5" y="672.325" type="curve" smooth="yes"/>
      <point x="183.1" y="672.325"/>
      <point x="119.15" y="633.325"/>
      <point x="66.725" y="557.25" type="curve"/>
      <point x="167.125" y="488.95000000000005" type="line"/>
      <point x="199.75" y="542.2249999999999"/>
      <point x="242.65" y="558.175"/>
      <point x="299.275" y="558.175" type="curve" smooth="yes"/>
      <point x="353.875" y="558.175"/>
      <point x="393.1" y="526.35"/>
      <point x="393.1" y="491.9" type="curve" smooth="yes"/>
      <point x="393.1" y="449.9"/>
      <point x="366.4" y="432.65"/>
    </contour>
  </outline>
</glyph>
<glyph name="partialdiff" format="2">
  <advance width="620.9749999999999"/>
  <unicode hex="2202"/>
  <outline>
    <contour>
      <point x="298.45" y="-13.0" type="curve" smooth="yes"/>
      <point x="452.45000000000005" y="-13.0"/>
      <point x="565.2" y="89.0"/>
      <point x="565.2" y="282.35" type="curve" smooth="yes"/>
      <point x="565.2" y="343.725"/>
      <point x="548.875" y="399.625"/>
      <point x="522.925" y="454.54999999999995" type="curve" smooth="yes"/>
      <point x="465.92499999999995" y="570.825"/>
      <point x="364.125" y="666.675"/>
      <point x="239.45" y="756.0" type="curve"/>
      <point x="158.2" y="666.75" type="line"/>
      <point x="281.7" y="580.8"/>
      <point x="377.35" y="483.575"/>
      <point x="418.625" y="394.025" type="curve"/>
      <point x="418.625" y="379.6" type="line"/>
      <point x="433.3" y="342.3"/>
      <point x="442.65000000000003" y="301.65"/>
      <point x="442.65000000000003" y="260.675" type="curve" smooth="yes"/>
      <point x="442.65000000000003" y="162.45"/>
      <point x="389.45" y="96.45"/>
      <point x="298.125" y="96.45" type="curve" smooth="yes"/>
      <point x="210.4" y="96.45"/>
      <point x="156.525" y="163.9"/>
      <point x="156.525" y="241.325" type="curve" smooth="yes"/>
      <point x="156.525" y="320.75"/>
      <point x="214.625" y="381.25"/>
      <point x="297.15" y="381.25" type="curve" smooth="yes"/>
      <point x="367.2" y="381.25"/>
      <point x="415.275" y="357.7"/>
      <point x="455.125" y="305.175" type="curve"/>
      <point x="440.65000000000003" y="401.425" type="line"/>
      <point x="391.29999999999995" y="454.90000000000003"/>
      <point x="345.125" y="485.3"/>
      <point x="269.925" y="485.3" type="curve" smooth="yes"/>
      <point x="155.675" y="485.3"/>
      <point x="38.7" y="393.0"/>
      <point x="38.7" y="241.0" type="curve" smooth="yes"/>
      <point x="38.7" y="101.0"/>
      <point x="143.45" y="-13.0"/>
    </contour>
  </outline>
</glyph>
<glyph name="infinity" format="2">
  <advance width="777.25"/>
  <unicode hex="221E"/>
  <outline>
    <contour>
      <point x="209.0" y="95.25" type="curve" smooth="yes"/>
      <point x="307.2" y="95.25"/>
      <point x="372.475" y="156.575"/>
      <point x="427.375" y="259.07500000000005" type="curve"/>
      <point x="349.65" y="259.07500000000005" type="line"/>
      <point x="399.2" y="156.575"/>
      <point x="468.725" y="95.25"/>
      <point x="568.25" y="95.25" type="curve" smooth="yes"/>
      <point x="683.0" y="95.25"/>
      <point x="764.0" y="181.0"/>
      <point x="764.0" y="287.0" type="curve" smooth="yes"/>
      <point x="764.0" y="392.0"/>
      <point x="683.0" y="478.75"/>
      <point x="568.25" y="478.75" type="curve" smooth="yes"/>
      <point x="468.725" y="478.75"/>
      <point x="399.2" y="416.42499999999995"/>
      <point x="346.3" y="314.925" type="curve"/>
      <point x="424.025" y="314.925" type="line"/>
      <point x="372.475" y="416.42499999999995"/>
      <point x="307.2" y="478.75"/>
      <point x="209.0" y="478.75" type="curve" smooth="yes"/>
      <point x="94.25" y="478.75"/>
      <point x="13.25" y="392.0"/>
      <point x="13.25" y="287.0" type="curve" smooth="yes"/>
      <point x="13.25" y="181.0"/>
      <point x="94.25" y="95.25"/>
    </contour>
    <contour>
      <point x="209.375" y="193.5" type="curve" smooth="yes"/>
      <point x="159.1" y="193.5"/>
      <point x="113.55000000000001" y="233.47500000000002"/>
      <point x="113.55000000000001" y="287.0" type="curve" smooth="yes"/>
      <point x="113.55000000000001" y="340.525"/>
      <point x="159.1" y="380.5"/>
      <point x="209.375" y="380.5" type="curve" smooth="yes"/>
      <point x="284.425" y="380.5"/>
      <point x="316.225" y="322.575"/>
      <point x="359.375" y="244.775" type="curve"/>
      <point x="359.375" y="329.225" type="line"/>
      <point x="316.225" y="251.42499999999998"/>
      <point x="284.425" y="193.5"/>
    </contour>
    <contour>
      <point x="568.175" y="193.5" type="curve" smooth="yes"/>
      <point x="493.125" y="193.5"/>
      <point x="456.125" y="251.42499999999998"/>
      <point x="412.97499999999997" y="329.225" type="curve"/>
      <point x="412.97499999999997" y="244.775" type="line"/>
      <point x="456.125" y="322.575"/>
      <point x="493.125" y="380.5"/>
      <point x="568.175" y="380.5" type="curve" smooth="yes"/>
      <point x="618.125" y="380.5"/>
      <point x="665.0" y="340.525"/>
      <point x="665.0" y="287.0" type="curve" smooth="yes"/>
      <point x="665.0" y="233.47500000000002"/>
      <point x="618.125" y="193.5"/>
    </contour>
  </outline>
</glyph>
<glyph name="blackSmallSquare" format="2">
  <advance width="384.0"/>
  <unicode hex="25AA"/>
  <outline>
    <contour>
      <point x="90.0" y="262.85" type="line"/>
      <point x="294.0" y="262.85" type="line"/>
      <point x="294.0" y="463.15000000000003" type="line"/>
      <point x="90.0" y="463.15000000000003" type="line"/>
    </contour>
  </outline>
</glyph>
<glyph name="checkmark" format="2">
  <advance width="600.0"/>
  <unicode hex="2713"/>
  <outline>
    <contour>
      <point x="234.325" y="146.0" type="line"/>
      <point x="289.85" y="223.625" type="line"/>
      <point x="142.6" y="381.20000000000005" type="line"/>
      <point x="75.025" y="316.29999999999995" type="line"/>
    </contour>
    <contour>
      <point x="234.325" y="146.0" type="line"/>
      <point x="558.65" y="495.325" type="line"/>
      <point x="490.75" y="560.225" type="line"/>
      <point x="179.8" y="225.275" type="line"/>
    </contour>
  </outline>
</glyph>
<glyph name="Eng.ss10" format="2">
  <advance width="769.1750000000001"/>
  <anchor x="391.75" y="0.0" name="bottom"/>
  <anchor x="672.75" y="0.0" name="ogonek"/>
  <anchor x="382.75" y="700.0" name="top"/>
  <outline>
    <contour>
      <point x="574.45" y="152.75" type="line"/>
      <point x="574.45" y="-220.0" type="line"/>
      <point x="688.525" y="-220.0" type="line"/>
      <point x="688.525" y="0.0" type="line"/>
    </contour>
    <component base="N"/>
  </outline>
</glyph>
<glyph name="circumflexcomb.case" format="2">
  <anchor x="0.0" y="700.0" name="_top"/>
  <anchor x="0.32499999999999996" y="842.15" name="top"/>
  <outline>
    <contour>
      <point x="-154.14999999999998" y="740.0" type="line"/>
      <point x="-53.55" y="740.0" type="line"/>
      <point x="0.32499999999999996" y="798.225" type="line"/>
      <point x="3.0" y="798.225" type="line"/>
      <point x="55.55" y="740.0" type="line"/>
      <point x="154.14999999999998" y="740.0" type="line"/>
      <point x="46.575" y="852.25" type="line"/>
      <point x="-43.25000000000001" y="852.25" type="line"/>
    </contour>
  </outline>
</glyph>
<glyph name="comma.ss04" format="2">
  <advance width="254.64999999999998"/>
  <outline>
    <contour>
      <point x="90.275" y="141.35" type="line"/>
      <point x="84.95000000000002" y="70.925" type="line" smooth="yes"/>
      <point x="77.325" y="-26.049999999999997"/>
      <point x="49.575" y="-97.775"/>
      <point x="17.500000000000004" y="-158.6" type="curve"/>
      <point x="61.4" y="-183.375" type="line"/>
      <point x="134.9" y="-114.025"/>
      <point x="172.0" y="-34.949999999999996"/>
      <point x="190.625" y="68.9" type="curve" smooth="yes"/>
      <point x="201.97500000000002" y="132.7" type="line"/>
    </contour>
  </outline>
</glyph>
<glyph name="f_f_i.ss11" format="2">
  <advance width="936.625"/>
  <anchor x="820.75" y="0.0" name="bottom_1"/>
  <anchor x="794.225" y="0.0" name="ogonek_1"/>
  <anchor x="820.75" y="500.125" name="top_1"/>
  <anchor x="384.525" y="0.0" name="caret_1"/>
  <anchor x="708.625" y="0.0" name="caret_2"/>
  <outline>
    <contour>
      <point x="114.3" y="0.0" type="line"/>
      <point x="231.425" y="0.0" type="line"/>
      <point x="231.425" y="546.675" type="line" smooth="yes"/>
      <point x="231.425" y="607.75"/>
      <point x="269.1" y="645.925"/>
      <point x="336.6" y="645.925" type="curve" smooth="yes"/>
      <point x="400.45" y="645.925"/>
      <point x="438.075" y="609.775"/>
      <point x="438.075" y="551.4000000000001" type="curve" smooth="yes"/>
      <point x="438.075" y="0.0" type="line"/>
      <point x="555.2" y="0.0" type="line"/>
      <point x="555.2" y="546.675" type="line" smooth="yes"/>
      <point x="555.2" y="607.75"/>
      <point x="592.875" y="645.925"/>
      <point x="660.375" y="645.925" type="curve" smooth="yes"/>
      <point x="724.225" y="645.925"/>
      <point x="761.85" y="609.775"/>
      <point x="761.85" y="551.4000000000001" type="curve"/>
      <point x="878.975" y="551.4000000000001" type="line"/>
      <point x="878.975" y="667.35"/>
      <point x="789.875" y="753.0"/>
      <point x="660.375" y="753.0" type="curve" smooth="yes"/>
      <point x="596.45" y="753.0"/>
      <point x="530.75" y="722.4000000000001"/>
      <point x="500.32500000000005" y="668.825" type="curve"/>
      <point x="494.325" y="668.825" type="line"/>
      <point x="463.57500000000005" y="723.4"/>
      <point x="398.55" y="753.0"/>
      <point x="336.6" y="753.0" type="curve" smooth="yes"/>
      <point x="204.79999999999998" y="753.0"/>
      <point x="114.3" y="667.35"/>
      <point x="114.3" y="552.7" type="curve" smooth="yes"/>
    </contour>
    <contour>
      <point x="19.025" y="395.725" type="line"/>
      <point x="702.0" y="395.725" type="line"/>
      <point x="702.0" y="500.125" type="line"/>
      <point x="19.025" y="500.125" type="line"/>
    </contour>
    <component base="idotless" xOffset="691.2"/>
  </outline>
</glyph>
<glyph name="f_i.ss11" format="2">
  <advance width="628.5500000000001"/>
  <anchor x="499.675" y="0.0" name="bottom_1"/>
  <anchor x="473.15" y="0.0" name="ogonek_1"/>
  <anchor x="499.675" y="500.125" name="top_1"/>
  <anchor x="384.525" y="0.0" name="caret_1"/>
  <outline>
    <contour>
      <point x="114.3" y="0.0" type="line"/>
      <point x="231.425" y="0.0" type="line"/>
      <point x="231.425" y="546.675" type="line" smooth="yes"/>
      <point x="231.425" y="607.75"/>
      <point x="269.1" y="645.925"/>
      <point x="336.6" y="645.925" type="curve" smooth="yes"/>
      <point x="400.45" y="645.925"/>
      <point x="438.075" y="609.775"/>
      <point x="438.075" y="551.4000000000001" type="curve"/>
      <point x="555.2" y="551.4000000000001" type="line"/>
      <point x="555.2" y="667.35"/>
      <point x="466.1" y="753.0"/>
      <point x="336.6" y="753.0" type="curve" smooth="yes"/>
      <point x="204.79999999999998" y="753.0"/>
      <point x="114.3" y="667.35"/>
      <point x="114.3" y="552.7" type="curve" smooth="yes"/>
    </contour>
    <contour>
      <point x="19.025" y="395.725" type="line"/>
      <point x="378.225" y="395.725" type="line"/>
      <point x="378.225" y="500.125" type="line"/>
      <point x="19.025" y="500.125" type="line"/>
    </contour>
    <component base="idotless" xOffset="370.125"/>
  </outline>
</glyph>
<glyph name="germandbls.ss10" format="2">
  <advance width="680.975"/>
  <outline>
    <contour>
      <point x="19.025" y="395.725" type="line"/>
      <point x="168.75" y="395.725" type="line"/>
      <point x="168.75" y="500.125" type="line"/>
      <point x="19.025" y="500.125" type="line"/>
    </contour>
    <component base="germandbls" xOffset="48.725"/>
  </outline>
</glyph>
<glyph name="hookabovecomb.case" format="2">
  <anchor x="0.0" y="700.0" name="_top"/>
  <anchor x="0.0" y="883.475" name="top"/>
  <outline>
    <contour>
      <point x="-39.4" y="736.35" type="curve"/>
      <point x="45.800000000000004" y="736.35" type="line"/>
      <point x="62.199999999999996" y="749.075"/>
      <point x="80.5" y="768.35"/>
      <point x="80.5" y="806.075" type="curve" smooth="yes"/>
      <point x="80.5" y="852.325"/>
      <point x="42.525" y="896.0500000000001"/>
      <point x="-26.225" y="896.0500000000001" type="curve" smooth="yes"/>
      <point x="-58.8" y="896.0500000000001"/>
      <point x="-86.175" y="883.425"/>
      <point x="-105.25" y="871.725" type="curve"/>
      <point x="-68.85" y="813.225" type="line"/>
      <point x="-60.525" y="819.5250000000001"/>
      <point x="-46.55" y="825.525"/>
      <point x="-30.575" y="825.525" type="curve" smooth="yes"/>
      <point x="-6.2749999999999995" y="825.525"/>
      <point x="3.2749999999999995" y="811.2"/>
      <point x="3.2749999999999995" y="795.675" type="curve" smooth="yes"/>
      <point x="3.2749999999999995" y="777.0250000000001"/>
      <point x="-10.4" y="759.0500000000001"/>
    </contour>
  </outline>
</glyph>
<glyph name="hookabovecombviet" format="2">
  <advance width="300.0"/>
  <anchor x="0.0" y="500.125" name="_top"/>
  <anchor x="0.0" y="691.0250000000001" name="top"/>
  <outline>
    <contour>
      <point x="-27.700000000000003" y="572.125" type="curve"/>
      <point x="0.32499999999999996" y="528.425" type="line"/>
      <point x="39.675" y="545.4"/>
      <point x="64.025" y="571.45"/>
      <point x="64.025" y="615.425" type="curve" smooth="yes"/>
      <point x="64.025" y="665.75"/>
      <point x="27.425" y="712.875"/>
      <point x="-52.775" y="712.875" type="curve" smooth="yes"/>
      <point x="-83.4" y="712.875"/>
      <point x="-109.8" y="705.525"/>
      <point x="-131.8" y="692.2" type="curve"/>
      <point x="-92.975" y="624.675" type="line"/>
      <point x="-83.675" y="630.65"/>
      <point x="-69.375" y="636.325"/>
      <point x="-50.675" y="636.325" type="curve" smooth="yes"/>
      <point x="-21.05" y="636.325"/>
      <point x="-0.7500000000000004" y="623.675"/>
      <point x="-0.7500000000000004" y="604.4" type="curve" smooth="yes"/>
      <point x="-0.7500000000000004" y="586.075"/>
      <point x="-11.775" y="576.425"/>
    </contour>
  </outline>
</glyph>
<glyph name="horn.alt" format="2">
  <advance width="300.0"/>
  <anchor x="100.55000000000001" y="500.125" name="_topright"/>
  <outline>
    <contour>
      <point x="86.975" y="427.875" type="line"/>
      <point x="150.125" y="427.875"/>
      <point x="221.525" y="469.025"/>
      <point x="221.525" y="556.45" type="curve" smooth="yes"/>
      <point x="221.525" y="577.125"/>
      <point x="216.85000000000002" y="602.55"/>
      <point x="211.20000000000002" y="617.55" type="curve"/>
      <point x="112.475" y="617.55" type="line"/>
      <point x="118.47500000000001" y="600.55"/>
      <point x="121.475" y="583.85"/>
      <point x="121.475" y="570.475" type="curve" smooth="yes"/>
      <point x="122.475" y="531.075"/>
      <point x="107.475" y="500.125"/>
      <point x="19.2" y="500.125" type="curve"/>
    </contour>
  </outline>
</glyph>
<glyph name="micro.ss10" format="2">
  <advance width="585.825"/>
  <outline>
    <contour>
      <point x="70.65" y="-220.0" type="line"/>
      <point x="187.77499999999998" y="-220.0" type="line"/>
      <point x="187.77499999999998" y="16.775" type="line"/>
      <point x="192.8" y="16.775" type="line"/>
      <point x="223.45" y="-2.075"/>
      <point x="262.375" y="-12.0"/>
      <point x="307.275" y="-12.0" type="curve" smooth="yes"/>
      <point x="440.825" y="-12.0"/>
      <point x="520.175" y="69.05"/>
      <point x="520.175" y="202.97500000000002" type="curve" smooth="yes"/>
      <point x="520.175" y="500.125" type="line"/>
      <point x="403.375" y="500.125" type="line"/>
      <point x="403.375" y="225.25" type="line" smooth="yes"/>
      <point x="403.375" y="133.625"/>
      <point x="371.17499999999995" y="91.375"/>
      <point x="298.275" y="91.375" type="curve" smooth="yes"/>
      <point x="227.4" y="91.375"/>
      <point x="187.77499999999998" y="133.625"/>
      <point x="187.77499999999998" y="225.25" type="curve" smooth="yes"/>
      <point x="187.77499999999998" y="500.125" type="line"/>
      <point x="70.65" y="500.125" type="line"/>
    </contour>
  </outline>
</glyph>
<glyph name="quotesingle.ss04" format="2">
  <advance width="185.7"/>
  <outline>
    <contour>
      <point x="27.474999999999998" y="700.0" type="line"/>
      <point x="60.6" y="400.725" type="line"/>
      <point x="124.1" y="400.725" type="line"/>
      <point x="158.225" y="700.0" type="line"/>
    </contour>
  </outline>
</glyph>
<glyph name="zero.lf" format="2">
  <advance width="655.8"/>
  <outline>
    <contour>
      <point x="327.9" y="-13.0" type="curve" smooth="yes"/>
      <point x="482.07500000000005" y="-12.675"/>
      <point x="590.1500000000001" y="103.475"/>
      <point x="590.1500000000001" y="252.5" type="curve" smooth="yes"/>
      <point x="590.1500000000001" y="449.40000000000003" type="line" smooth="yes"/>
      <point x="590.1500000000001" y="594.525"/>
      <point x="482.07500000000005" y="711.325"/>
      <point x="327.9" y="711.0" type="curve" smooth="yes"/>
      <point x="173.725" y="710.675"/>
      <point x="65.65" y="594.525"/>
      <point x="65.65" y="447.77500000000003" type="curve" smooth="yes"/>
      <point x="65.65" y="250.22500000000002" type="line" smooth="yes"/>
      <point x="65.65" y="103.475"/>
      <point x="173.725" y="-13.325"/>
    </contour>
    <contour>
      <point x="327.9" y="99.775" type="curve" smooth="yes"/>
      <point x="240.925" y="99.775"/>
      <point x="192.125" y="167.1"/>
      <point x="192.125" y="264.92499999999995" type="curve" smooth="yes"/>
      <point x="192.125" y="435.975" type="line" smooth="yes"/>
      <point x="192.125" y="537.95"/>
      <point x="240.925" y="598.225"/>
      <point x="327.9" y="598.225" type="curve" smooth="yes"/>
      <point x="414.875" y="598.225"/>
      <point x="463.675" y="536.975"/>
      <point x="463.675" y="434.35" type="curve" smooth="yes"/>
      <point x="463.675" y="262.975" type="line" smooth="yes"/>
      <point x="463.675" y="166.125"/>
      <point x="414.875" y="99.775"/>
    </contour>
  </outline>
</glyph>
<glyph name="zero.ss10.numr" format="2">
  <advance width="372.05"/>
  <outline>
    <contour>
      <point x="185.5" y="308.0" type="curve" smooth="yes"/>
      <point x="272.6" y="308.0"/>
      <point x="335.0" y="375.32500000000005"/>
      <point x="335.0" y="506.325" type="curve" smooth="yes"/>
      <point x="335.0" y="635.0"/>
      <point x="276.6" y="706.0"/>
      <point x="185.5" y="706.0" type="curve" smooth="yes"/>
      <point x="95.77499999999999" y="706.0"/>
      <point x="37.05" y="636.675"/>
      <point x="37.05" y="506.325" type="curve" smooth="yes"/>
      <point x="37.05" y="374.325"/>
      <point x="99.775" y="308.0"/>
    </contour>
    <contour>
      <point x="186.175" y="376.9" type="curve" smooth="yes"/>
      <point x="145.85" y="376.9"/>
      <point x="115.30000000000001" y="410.82500000000005"/>
      <point x="115.30000000000001" y="506.325" type="curve" smooth="yes"/>
      <point x="115.30000000000001" y="608.5"/>
      <point x="145.85" y="637.1"/>
      <point x="186.175" y="637.1" type="curve" smooth="yes"/>
      <point x="227.2" y="637.1"/>
      <point x="257.075" y="608.5"/>
      <point x="257.075" y="506.325" type="curve" smooth="yes"/>
      <point x="257.075" y="410.82500000000005"/>
      <point x="227.2" y="376.9"/>
    </contour>
  </outline>
</glyph>
